<svg  version="1.1" xmlns="http://www.w3.org/2000/svg" viewBox="0 0 512 512">
    <path d="M256 8C119.1 8 8 119.1 8 256C8 392.9 119.1 504 256 504C392.9 504 504 392.9 504 256C504 119.1 392.9 8 256 8Z" fill="#1ed760"/>
    <path d="M414.6 231.1C409.4 231.1 406.2 229.8 401.7 227.2C330.5 184.7 203.2 174.5 120.8 197.5C117.2 198.5 112.7 200.1 107.9 200.1C94.7 200.1 84.6 189.8 84.6 176.5C84.6 162.9 93 155.2 102 152.6C137.2 142.3 176.6 137.4 219.5 137.4C292.5 137.4 369 152.6 424.9 185.2C432.7 189.7 437.8 195.9 437.8 207.8C437.8 221.4 426.8 231.1 414.6 231.1ZM383.6 307.3C378.4 307.3 374.9 305 371.3 303.1C308.8 266.1 215.6 251.2 132.7 273.7C127.9 275 125.3 276.3 120.8 276.3C110.1 276.3 101.4 267.6 101.4 256.9C101.4 246.2 106.6 239.1 116.9 236.2C144.7 228.4 173.1 222.6 214.7 222.6C279.6 222.6 342.3 238.7 391.7 268.1C399.8 272.9 403 279.1 403 287.8C402.9 298.6 394.5 307.3 383.6 307.3ZM356.7 372.9C352.5 372.9 349.9 371.6 346 369.3C283.6 331.7 211 330.1 139.3 344.8C135.4 345.8 130.3 347.4 127.4 347.4C117.7 347.4 111.6 339.7 111.6 331.6C111.6 321.3 117.7 316.4 125.2 314.8C207.1 296.7 290.8 298.3 362.2 341C368.3 344.9 371.9 348.4 371.9 357.5C371.9 366.6 364.8 372.9 356.7 372.9Z" fill="#000000"/>
</svg>
